<svg width="48" height="48" viewBox="0 0 48 48" fill="none" xmlns="http://www.w3.org/2000/svg">
<circle cx="24" cy="24" r="21" fill="#F2430C"/>
<path d="M17.5611 15.4393C16.9754 14.8536 16.0256 14.8536 15.4398 15.4393C14.854 16.0251 14.854 16.9749 15.4398 17.5607L21.8788 23.9996L15.4393 30.4391C14.8536 31.0249 14.8536 31.9746 15.4393 32.5604C16.0251 33.1462 16.9749 33.1462 17.5607 32.5604L24.0001 26.121L30.4396 32.5604C31.0253 33.1462 31.9751 33.1462 32.5609 32.5604C33.1467 31.9746 33.1467 31.0249 32.5609 30.4391L26.1214 23.9996L32.5604 17.5607C33.1462 16.9749 33.1462 16.0251 32.5604 15.4393C31.9746 14.8536 31.0249 14.8536 30.4391 15.4393L24.0001 21.8783L17.5611 15.4393Z" fill="white"/>
</svg>
