<svg xmlns="http://www.w3.org/2000/svg" width="32" height="32" viewBox="0 0 32 32" fill="none">
  <path fill-rule="evenodd" clip-rule="evenodd" d="M19.7071 24.2929C20.0976 24.6834 20.0976 25.3166 19.7071 25.7071L16.7071 28.7071C16.3166 29.0976 15.6834 29.0976 15.2929 28.7071L12.2929 25.7071C11.9024 25.3166 11.9024 24.6834 12.2929 24.2929C12.6834 23.9024 13.3166 23.9024 13.7071 24.2929L16 26.5858L18.2929 24.2929C18.6834 23.9024 19.3166 23.9024 19.7071 24.2929Z" fill="#67676E"/>
  <path fill-rule="evenodd" clip-rule="evenodd" d="M16 29C15.4477 29 15 28.5523 15 28V22C15 21.4477 15.4477 21 16 21C16.5523 21 17 21.4477 17 22V28C17 28.5523 16.5523 29 16 29Z" fill="#67676E"/>
  <path fill-rule="evenodd" clip-rule="evenodd" d="M11.5182 8.15961C10.5559 9.41795 10.0633 10.9683 9.73582 12.1269C9.54916 12.7873 8.9706 13.179 8.38452 13.2324C6.28804 13.4233 3.00004 15.4813 3 19.4375C2.99998 21.8199 3.78453 23.1686 4.6606 23.9348C5.56873 24.7291 6.69292 25 7.49625 25H9C9.55228 25 10 25.4477 10 26C10 26.5523 9.55228 27 9 27H7.49625C6.31062 27 4.68665 26.6147 3.34389 25.4402C1.96906 24.2377 0.999972 22.3051 1 19.4375C1.00005 14.3786 5.04946 11.6918 7.89903 11.2767C8.24294 10.0982 8.81747 8.39888 9.92948 6.94471C11.178 5.31206 13.0979 4 16 4C16.5523 4 17 4.44772 17 5C17 5.55228 16.5523 6 16 6C13.8079 6 12.4445 6.94833 11.5182 8.15961Z" fill="#67676E"/>
  <path fill-rule="evenodd" clip-rule="evenodd" d="M20.4167 8.18026C21.4383 9.44488 21.9969 11.0036 22.3274 12.1348C22.5176 12.7857 23.0893 13.178 23.677 13.2326C25.7428 13.4246 28.9995 15.4763 28.9995 19.4375C28.9995 21.8231 28.221 23.1726 27.3542 23.9379C26.4566 24.7305 25.3466 25 24.555 25H22.9995C22.4472 25 21.9995 25.4477 21.9995 26C21.9995 26.5523 22.4472 27 22.9995 27H24.555C25.7337 27 27.346 26.6133 28.678 25.4371C30.041 24.2337 30.9995 22.3019 30.9995 19.4375C30.9995 14.3852 26.9907 11.6928 24.1582 11.2768C23.7895 10.0775 23.1473 8.37768 21.9725 6.92344C20.6678 5.30841 18.704 4 15.829 4C15.2767 4 14.829 4.44772 14.829 5C14.829 5.55228 15.2767 6 15.829 6C17.9999 6 19.4242 6.95165 20.4167 8.18026Z" fill="#67676E"/>
</svg>