<svg width="24" height="29" viewBox="0 0 24 29" fill="none" xmlns="http://www.w3.org/2000/svg">
<path d="M9 3.08447C9 2.53219 9.44772 2.08447 10 2.08447H21C21.5523 2.08447 22 2.53219 22 3.08447V18.0845C22 18.6368 21.5523 19.0845 21 19.0845H20C19.4477 19.0845 19 19.5322 19 20.0845C19 20.6368 19.4477 21.0845 20 21.0845H21C22.6569 21.0845 24 19.7413 24 18.0845V3.08447C24 1.42762 22.6569 0.0844727 21 0.0844727H10C8.34315 0.0844727 7 1.42762 7 3.08447V4.08447C7 4.63676 7.44772 5.08447 8 5.08447C8.55229 5.08447 9 4.63676 9 4.08447V3.08447Z" fill="black"/>
<path fill-rule="evenodd" clip-rule="evenodd" d="M0 11.8845C0 10.2043 0 9.36424 0.32698 8.7225C0.614601 8.15802 1.07354 7.69907 1.63803 7.41145C2.27976 7.08447 3.11984 7.08447 4.8 7.08447H12.2325C13.9024 7.08447 14.7373 7.08447 15.3769 7.40868C15.9394 7.69389 16.3978 8.14916 16.6868 8.70979C17.0154 9.34708 17.0211 10.182 17.0324 11.8518L17.11 23.2518C17.1215 24.9423 17.1272 25.7875 16.8019 26.4337C16.5157 27.002 16.0562 27.4647 15.4898 27.7547C14.8459 28.0845 14.0006 28.0845 12.3101 28.0845H4.8C3.11984 28.0845 2.27976 28.0845 1.63803 27.7575C1.07354 27.4699 0.614601 27.0109 0.32698 26.4464C0 25.8047 0 24.9646 0 23.2845V11.8845ZM15.0325 11.8654L15.11 23.2654C15.116 24.1438 15.1181 24.6819 15.0879 25.0846C15.0738 25.2723 15.0552 25.3859 15.0394 25.4549C15.0319 25.4877 15.0256 25.5079 15.0217 25.5187C15.0181 25.5292 15.0155 25.5342 15.0155 25.5342C14.9201 25.7237 14.767 25.8779 14.5782 25.9746C14.5782 25.9746 14.5732 25.9771 14.5628 25.9809C14.5519 25.9847 14.5318 25.9912 14.499 25.999C14.4301 26.0153 14.3167 26.0346 14.1291 26.0499C13.7266 26.0829 13.1885 26.0845 12.3101 26.0845H4.8C3.92692 26.0845 3.39239 26.0829 2.99247 26.0502C2.80617 26.035 2.69345 26.0159 2.625 25.9998C2.59244 25.9921 2.57241 25.9857 2.56158 25.9818C2.55118 25.9781 2.54601 25.9755 2.54601 25.9755C2.35785 25.8796 2.20487 25.7266 2.10899 25.5385C2.10899 25.5385 2.10636 25.5333 2.10265 25.5229C2.09879 25.5121 2.09236 25.492 2.08469 25.4595C2.06857 25.391 2.04945 25.2783 2.03423 25.092C2.00156 24.6921 2 24.1576 2 23.2845V11.8845C2 11.0114 2.00156 10.4769 2.03423 10.0769C2.04945 9.89064 2.06857 9.77792 2.08469 9.70947C2.09236 9.67691 2.09879 9.65688 2.10265 9.64605C2.10636 9.63565 2.10899 9.63048 2.10899 9.63048C2.20487 9.44232 2.35785 9.28934 2.54601 9.19347C2.54601 9.19347 2.55118 9.19084 2.56158 9.18712C2.57241 9.18326 2.59244 9.17683 2.625 9.16916C2.69345 9.15304 2.80617 9.13392 2.99247 9.1187C3.39239 9.08603 3.92692 9.08447 4.8 9.08447H12.2325C13.1004 9.08447 13.6313 9.08602 14.0287 9.11839C14.2137 9.13347 14.3257 9.1524 14.3937 9.16836C14.4261 9.17595 14.446 9.18232 14.4568 9.18617C14.4672 9.18986 14.4725 9.19254 14.4725 9.19254C14.66 9.28761 14.8128 9.43937 14.9092 9.62624C14.9092 9.62624 14.9119 9.63154 14.9157 9.6419C14.9196 9.65269 14.9261 9.67258 14.9339 9.70489C14.9503 9.77279 14.97 9.88463 14.9863 10.0696C15.0214 10.4667 15.0266 10.9976 15.0325 11.8654Z" fill="black"/>
</svg>
