<svg width="32" height="32" viewBox="0 0 32 32" fill="none" xmlns="http://www.w3.org/2000/svg">
<path fill-rule="evenodd" clip-rule="evenodd" d="M16.0002 5.00757C16.5524 5.00757 17.0002 5.45528 17.0002 6.00757V27.0076C17.0002 27.5599 16.5524 28.0076 16.0002 28.0076C15.4479 28.0076 15.0002 27.5599 15.0002 27.0076V6.00757C15.0002 5.45528 15.4479 5.00757 16.0002 5.00757Z" fill="black"/>
<path fill-rule="evenodd" clip-rule="evenodd" d="M10.3848 27.0845C10.3848 26.5322 10.8325 26.0845 11.3848 26.0845H20.6155C21.1678 26.0845 21.6155 26.5322 21.6155 27.0845C21.6155 27.6368 21.1678 28.0845 20.6155 28.0845H11.3848C10.8325 28.0845 10.3848 27.6368 10.3848 27.0845Z" fill="black"/>
<path fill-rule="evenodd" clip-rule="evenodd" d="M7.6154 5.08447C7.6154 4.53219 8.06311 4.08447 8.6154 4.08447H23.3846C23.9369 4.08447 24.3846 4.53219 24.3846 5.08447C24.3846 5.63676 23.9369 6.08447 23.3846 6.08447H8.6154C8.06311 6.08447 7.6154 5.63676 7.6154 5.08447Z" fill="black"/>
<path fill-rule="evenodd" clip-rule="evenodd" d="M10.9883 8.19849L12.1402 9.90849C13.4824 11.9012 12.0546 14.5845 9.65198 14.5845H7.34834C4.94577 14.5845 3.51794 11.9012 4.86016 9.90849L6.01197 8.19849C7.20107 6.43313 9.79925 6.43313 10.9883 8.19849ZM9.32956 9.31581C8.93319 8.72735 8.06713 8.72736 7.67076 9.31581L6.51895 11.0258C6.07154 11.69 6.54749 12.5845 7.34834 12.5845H9.65198C10.4528 12.5845 10.9288 11.69 10.4814 11.0258L9.32956 9.31581Z" fill="black"/>
<path fill-rule="evenodd" clip-rule="evenodd" d="M25.9883 8.19853L27.1402 9.90854C28.4824 11.9012 27.0546 14.5845 24.652 14.5845H22.3483C19.9458 14.5845 18.5179 11.9012 19.8602 9.90854L21.012 8.19853C22.2011 6.43318 24.7992 6.43317 25.9883 8.19853ZM24.3296 9.31585C23.9332 8.7274 23.0671 8.7274 22.6708 9.31585L21.5189 11.0259C21.0715 11.6901 21.5475 12.5845 22.3483 12.5845H24.652C25.4528 12.5845 25.9288 11.6901 25.4814 11.0259L24.3296 9.31585Z" fill="black"/>
</svg>
