<svg width="20" height="20" viewBox="0 0 20 20" fill="none" xmlns="http://www.w3.org/2000/svg">
<path d="M4 10C4 9.44771 4.44772 9 5 9H9V5C9 4.44772 9.44771 4 10 4C10.5523 4 11 4.44772 11 5V9H15C15.5523 9 16 9.44771 16 10C16 10.5523 15.5523 11 15 11H11V15C11 15.5523 10.5523 16 10 16C9.44772 16 9 15.5523 9 15V11H5C4.44772 11 4 10.5523 4 10Z" fill="#DD0A34"/>
<path fill-rule="evenodd" clip-rule="evenodd" d="M0 10C0 4.47715 4.47715 0 10 0C15.5228 0 20 4.47715 20 10C20 15.5228 15.5228 20 10 20C4.47715 20 0 15.5228 0 10ZM10 2C5.58172 2 2 5.58172 2 10C2 14.4183 5.58172 18 10 18C14.4183 18 18 14.4183 18 10C18 5.58172 14.4183 2 10 2Z" fill="#DD0A34"/>
</svg>
