<svg width="19" height="20" viewBox="0 0 19 20" fill="none" xmlns="http://www.w3.org/2000/svg">
<path d="M12.8379 0C13.6335 0 14.3974 0.316297 14.96 0.878906L17.7881 3.70703C18.3506 4.26957 18.6669 5.03258 18.667 5.82812V17C18.667 18.6568 17.3237 19.9999 15.667 20H5.66699C4.01014 20 2.66699 18.6569 2.66699 17V15.667C1.19423 15.667 0 14.4728 0 13V10C2.16482e-05 8.52726 1.19425 7.33301 2.66699 7.33301V3C2.66699 1.34315 4.01014 0 5.66699 0H12.8379ZM5.66699 2C5.11471 2 4.66699 2.44772 4.66699 3V7.33301H9.66699C11.1396 7.33318 12.333 8.52737 12.333 10V13C12.333 14.4727 11.1396 15.6668 9.66699 15.667H4.66699V17C4.66699 17.5523 5.11471 18 5.66699 18H15.667C16.2192 17.9999 16.667 17.5522 16.667 17V7H12.667C11.0101 7 9.66699 5.65685 9.66699 4V2H5.66699ZM2.66699 9C2.11472 9 1.66701 9.44773 1.66699 10V13C1.66699 13.5523 2.11471 14 2.66699 14H9.66699C10.2191 13.9998 10.667 13.5522 10.667 13V10C10.667 9.44784 10.2191 9.00018 9.66699 9H2.66699ZM9.19434 9.77051L8.19434 13.2705H7.7002L7.70117 13.2744H6.84375L6.45117 11.1357L6.05762 13.2803H4.7002L3.7002 9.78027H4.7002L5.4502 12.4053L6.2002 9.78027H6.20215L6.20117 9.77441H6.70117L7.44727 12.3848L8.19434 9.77051H9.19434ZM11.667 4C11.667 4.55228 12.1147 5 12.667 5H16.2529L13.5459 2.29297C13.3584 2.10543 13.1031 2 12.8379 2H11.667V4Z" fill="#005FD4"/>
<path d="M14.5 12.583C16.1108 12.583 17.417 13.8892 17.417 15.5C17.417 17.1108 16.1108 18.417 14.5 18.417C12.8892 18.417 11.583 17.1108 11.583 15.5C11.583 13.8892 12.8892 12.583 14.5 12.583ZM14.5 16.4629C14.3067 16.4629 14.1504 16.6192 14.1504 16.8125C14.1504 17.0058 14.3067 17.1621 14.5 17.1621C14.6933 17.1621 14.8496 17.0058 14.8496 16.8125C14.8496 16.6192 14.6933 16.4629 14.5 16.4629ZM14.4414 13.75C14.3127 13.7501 14.208 13.8546 14.208 13.9834V15.7266C14.208 15.8553 14.3127 15.9598 14.4414 15.96H14.5586C14.6873 15.9598 14.792 15.8553 14.792 15.7266V13.9834C14.792 13.8546 14.6873 13.7501 14.5586 13.75H14.4414Z" fill="#F0B000"/>
</svg>