<svg width="19" height="20" viewBox="0 0 19 20" fill="none" xmlns="http://www.w3.org/2000/svg">
<path fill-rule="evenodd" clip-rule="evenodd" d="M3.45536 10C3.67292 10 3.86537 10.0447 4.03273 10.1341C4.20287 10.2235 4.33396 10.3492 4.42601 10.5112C4.52084 10.6704 4.56825 10.8534 4.56825 11.0601C4.56825 11.2612 4.52084 11.4399 4.42601 11.5964C4.33396 11.75 4.20426 11.8701 4.03691 11.9567C3.86956 12.0433 3.67571 12.0866 3.45536 12.0866H3.01606V13H2.16675V10H3.45536ZM3.35913 11.3743C3.48186 11.3743 3.57251 11.3478 3.63108 11.2947C3.68965 11.2416 3.71894 11.1578 3.71894 11.0433C3.71894 10.8226 3.59901 10.7123 3.35913 10.7123H3.01606V11.3743H3.35913Z" fill="#DD0A34"/>
<path fill-rule="evenodd" clip-rule="evenodd" d="M6.16703 10C6.45431 10 6.70953 10.0628 6.93266 10.1885C7.1558 10.3142 7.32873 10.4916 7.45146 10.7207C7.57418 10.9469 7.63554 11.2067 7.63554 11.5C7.63554 11.7933 7.57418 12.0545 7.45146 12.2835C7.32873 12.5098 7.1558 12.6858 6.93266 12.8115C6.70953 12.9372 6.45431 13 6.16703 13H4.9328V10H6.16703ZM6.121 12.2542C6.3274 12.2542 6.48778 12.1885 6.60214 12.0573C6.71929 11.9232 6.77786 11.7374 6.77786 11.5C6.77786 11.2626 6.71929 11.0782 6.60214 10.9469C6.48778 10.8128 6.3274 10.7458 6.121 10.7458H5.78211V12.2542H6.121Z" fill="#DD0A34"/>
<path d="M10.1667 10.7458V10H8.07066V13H8.91997V11.9609H9.94919V11.2109H8.91997V10.7458H10.1667Z" fill="#DD0A34"/>
<path fill-rule="evenodd" clip-rule="evenodd" d="M5.66675 0C4.00989 0 2.66675 1.34315 2.66675 3V7.33337C1.19399 7.33337 0 8.52728 0 10V13C0 14.4728 1.19391 15.6667 2.66667 15.6667L2.66675 17C2.66675 18.6569 4.00989 20 5.66675 20H15.6667C17.3236 20 18.6667 18.6569 18.6667 17V5.82843C18.6667 5.03278 18.3507 4.26972 17.7881 3.70711L14.9596 0.878679C14.397 0.31607 13.634 0 12.8383 0H5.66675ZM9.66667 7.33337H4.66675V3C4.66675 2.44772 5.11446 2 5.66675 2H9.66675V4C9.66675 5.65685 11.0099 7 12.6667 7H16.6667V17C16.6667 17.5523 16.219 18 15.6667 18H5.66675C5.11446 18 4.66675 17.5523 4.66675 17V15.6667H9.66667C11.1394 15.6667 12.3333 14.4728 12.3333 13V10C12.3333 8.52728 11.1394 7.33337 9.66667 7.33337ZM16.2525 5L13.5454 2.29289C13.3579 2.10536 13.1035 2 12.8383 2H11.6667V4C11.6667 4.55228 12.1145 5 12.6667 5H16.2525ZM2.66667 9.00004C2.11438 9.00004 1.66667 9.44776 1.66667 10V13C1.66667 13.5523 2.11438 14 2.66667 14H9.66667C10.219 14 10.6667 13.5523 10.6667 13V10C10.6667 9.44776 10.219 9.00004 9.66667 9.00004H2.66667Z" fill="#DD0A34"/>
</svg>