<svg width="26" height="24" viewBox="0 0 26 24" fill="none" xmlns="http://www.w3.org/2000/svg">
<path fill-rule="evenodd" clip-rule="evenodd" d="M1 16.5845C1.55228 16.5845 2 17.0322 2 17.5845V19.5845C2 20.689 2.89543 21.5845 4 21.5845H22C23.1046 21.5845 24 20.689 24 19.5845V17.5845C24 17.0322 24.4477 16.5845 25 16.5845C25.5523 16.5845 26 17.0322 26 17.5845V19.5845C26 21.7936 24.2091 23.5845 22 23.5845H4C1.79086 23.5845 0 21.7936 0 19.5845V17.5845C0 17.0322 0.447715 16.5845 1 16.5845Z" fill="black"/>
<path fill-rule="evenodd" clip-rule="evenodd" d="M17.7071 9.37737C18.0976 9.76789 18.0976 10.4011 17.7071 10.7916L13.7071 14.7916C13.3166 15.1821 12.6834 15.1821 12.2929 14.7916L8.29289 10.7916C7.90237 10.4011 7.90237 9.76789 8.29289 9.37737C8.68342 8.98684 9.31658 8.98684 9.70711 9.37737L13 12.6703L16.2929 9.37737C16.6834 8.98684 17.3166 8.98684 17.7071 9.37737Z" fill="black"/>
<path fill-rule="evenodd" clip-rule="evenodd" d="M13 13.5845C13.5523 13.5845 14 13.1368 14 12.5845V1.58447C14 1.03219 13.5523 0.584473 13 0.584473C12.4477 0.584473 12 1.03219 12 1.58447V12.5845C12 13.1368 12.4477 13.5845 13 13.5845Z" fill="black"/>
</svg>
