<svg width="24" height="24" viewBox="0 0 24 24" fill="none" xmlns="http://www.w3.org/2000/svg">
<path d="M3 6C3 4.34315 4.34315 3 6 3H11C11.5523 3 12 3.44772 12 4C12 4.55228 11.5523 5 11 5H6C5.44772 5 5 5.44772 5 6V18C5 18.5523 5.44772 19 6 19H18C18.5523 19 19 18.5523 19 18V13C19 12.4477 19.4477 12 20 12C20.5523 12 21 12.4477 21 13V18C21 19.6569 19.6569 21 18 21H6C4.34315 21 3 19.6569 3 18V6Z" fill="#DD0A34"/>
<path fill-rule="evenodd" clip-rule="evenodd" d="M15 4C15 3.44772 15.4477 3 16 3H19.5C20.3284 3 21 3.67157 21 4.5V8C21 8.55228 20.5523 9 20 9C19.4477 9 19 8.55228 19 8V6.41429L15.7071 9.70718C15.3166 10.0977 14.6834 10.0977 14.2929 9.70718C13.9024 9.31666 13.9024 8.68349 14.2929 8.29297L17.5859 5H16C15.4477 5 15 4.55228 15 4Z" fill="#DD0A34"/>
</svg>