<svg xmlns="http://www.w3.org/2000/svg" width="28" height="28" viewBox="0 0 28 28" fill="none">
  <path d="M18.375 15.7499L9.625 15.7499C9.14175 15.7499 8.75 15.3581 8.75 14.8749C8.75 14.3916 9.14175 13.9999 9.625 13.9999L18.375 13.9999C18.8582 13.9999 19.25 14.3916 19.25 14.8749C19.25 15.3581 18.8582 15.7499 18.375 15.7499Z" fill="#67676E"/>
  <path d="M9.625 17.4999C9.14175 17.4999 8.75 17.8916 8.75 18.3749C8.75 18.8581 9.14175 19.2499 9.625 19.2499H14C14.4832 19.2499 14.875 18.8581 14.875 18.3749C14.875 17.8916 14.4832 17.4999 14 17.4999H9.625Z" fill="#67676E"/>
  <path fill-rule="evenodd" clip-rule="evenodd" d="M15.6357 2.60706L15.6357 2.62487H15.6911C16.3205 2.62487 16.9288 2.85097 17.4054 3.26196L21.8393 7.08555C22.3391 7.51655 22.6553 8.11718 22.7319 8.76526L22.7598 8.76526L22.7598 10.5153H22.75L22.75 22.7499C22.75 24.1996 21.5747 25.3749 20.125 25.3749L7.875 25.3749C6.42525 25.3749 5.25 24.1996 5.25 22.7499L5.25 5.24987C5.25 3.80013 6.42525 2.62487 7.875 2.62487L13.8857 2.62487L13.8857 2.60993L15.6357 2.60706ZM20.6964 8.41082C20.8085 8.5075 20.8929 8.62978 20.9439 8.76525L17.3533 8.76525C16.9046 8.76526 16.4948 8.54119 16.1699 8.12098C15.8385 7.69228 15.6397 7.10652 15.6397 6.5393C15.6397 5.7837 15.6391 5.0194 15.6384 4.44406L15.6383 4.37487H15.6911C15.9009 4.37487 16.1037 4.45024 16.2626 4.58724L20.6964 8.41082ZM13.8884 4.44599L13.8883 4.37487L7.875 4.37487C7.39175 4.37487 7 4.76662 7 5.24987L7 22.7499C7 23.2331 7.39175 23.6249 7.875 23.6249L20.125 23.6249C20.6082 23.6249 21 23.2331 21 22.7499V10.5152L17.3534 10.5153C16.2518 10.5153 15.3673 9.94403 14.7854 9.19133C14.2101 8.44712 13.8897 7.48238 13.8897 6.53929C13.8897 5.78458 13.8891 5.02098 13.8884 4.44599Z" fill="#67676E"/>
</svg>