<svg width="16" height="20" viewBox="0 0 16 20" fill="none" xmlns="http://www.w3.org/2000/svg">
<path fill-rule="evenodd" clip-rule="evenodd" d="M0 3.33333C0 1.49238 1.19391 0 2.66667 0H13.3333C14.8061 0 16 1.49238 16 3.33333V16.6667C16 18.5076 14.8061 20 13.3333 20H2.66667C1.19391 20 0 18.5076 0 16.6667V3.33333ZM2.66667 2.22222C2.17575 2.22222 1.77778 2.71968 1.77778 3.33333V16.6667C1.77778 17.2803 2.17575 17.7778 2.66667 17.7778H13.3333C13.8243 17.7778 14.2222 17.2803 14.2222 16.6667V3.33333C14.2222 2.71968 13.8243 2.22222 13.3333 2.22222H2.66667Z" fill="#DD0A34"/>
<path fill-rule="evenodd" clip-rule="evenodd" d="M7.95134 15.8243C8.44226 15.8243 9.19954 15.3269 9.19954 14.7132C9.19954 14.7132 9.19954 10.7248 9.19954 10.1111C9.19954 9.49746 8.44226 9 7.95134 9C7.46042 9 6.69954 9.49746 6.69954 10.1111V14.7132C6.69954 15.3269 7.46042 15.8243 7.95134 15.8243Z" fill="#DD0A34"/>
<path fill-rule="evenodd" clip-rule="evenodd" d="M9.19954 6.25C9.19954 6.94036 8.6399 7.5 7.94954 7.5C7.25919 7.5 6.69954 6.94036 6.69954 6.25C6.69954 5.55964 7.25919 5 7.94954 5C8.6399 5 9.19954 5.55964 9.19954 6.25Z" fill="#DD0A34"/>
</svg>