<svg width="32" height="32" viewBox="0 0 32 32" fill="none" xmlns="http://www.w3.org/2000/svg">
<path d="M14.5947 3.25485C15.5005 2.91502 16.4995 2.91508 17.4053 3.25485L25 6.10544C26.0842 6.51255 26.8541 7.5159 26.915 8.70115C26.9733 9.83669 27.0333 11.5977 26.9785 13.4101C26.9589 14.0605 26.9724 14.3431 26.915 15C26.9166 15.0189 26.99 15.9998 26 16C25.0099 15.9998 24.9187 15.019 24.917 15C24.9924 14.2773 24.9557 14.1376 24.9795 13.3496C25.032 11.6122 24.9738 9.91056 24.917 8.80369C24.8983 8.44202 24.6628 8.116 24.2969 7.97849L16.7031 5.1279C16.2502 4.95797 15.7498 4.95794 15.2969 5.1279L7.70313 7.97849C7.33706 8.11594 7.10173 8.44192 7.08302 8.80369C7.02625 9.91056 6.96806 11.6122 7.02052 13.3496C7.07371 15.1101 7.23897 16.8186 7.59181 17.9824C8.13985 19.7892 9.56079 21.5514 11.2002 23.0693C12.8208 24.5697 14.5567 25.7428 15.5879 26.3867C15.8437 26.5461 16.1563 26.5462 16.4121 26.3867C17.4433 25.7428 19.179 24.5699 20.7998 23.0693C21.0007 22.8834 21.0006 22.8911 21.3916 22.5C21.5359 22.3327 21.7501 22.2211 21.9844 22.1787C22.5277 22.0806 23.0482 22.441 23.1465 22.9844C23.1848 23.1968 23.1518 23.4054 23.0664 23.5869L22.707 24C22.2995 24.4004 22.4146 24.3006 22.1592 24.5371C20.4108 26.1558 18.5595 27.4037 17.4717 28.083C16.5675 28.6475 15.4325 28.6473 14.5283 28.083C13.4405 27.4037 11.589 26.1556 9.84083 24.5371C8.1114 22.9359 6.37997 20.8779 5.67774 18.5625C5.24377 17.131 5.07556 15.1996 5.02149 13.4101C4.96676 11.5977 5.0277 9.83669 5.08595 8.70115C5.1469 7.51581 5.91574 6.51249 7.00001 6.10544L14.5947 3.25485ZM14.8369 8.86716C15.1133 8.38854 15.7255 8.2247 16.2041 8.50095L22.5596 12.1699C23.0382 12.4463 23.2021 13.0584 22.9258 13.5371C22.6493 14.0155 22.0372 14.1796 21.5586 13.9033L21.2695 13.7363L20.2686 15.4687L28.3594 20.1406C28.9972 20.5092 29.2158 21.3249 28.8477 21.9629C28.4791 22.6009 27.6625 22.8196 27.0244 22.4512L18.9346 17.7812L17.9346 19.5146L12.1563 16.1787L15.4912 10.4004L15.2031 10.2344C14.7247 9.95804 14.5609 9.34573 14.8369 8.86716ZM10.5 16.3779C10.7764 15.8994 11.3886 15.7355 11.8672 16.0117L18.2227 19.6816C18.7013 19.958 18.8652 20.5702 18.5889 21.0488C18.3124 21.5267 17.701 21.6909 17.2227 21.415L10.8662 17.7451C10.3879 17.4687 10.224 16.8564 10.5 16.3779Z" fill="black"/>
</svg>
