<svg width="28" height="28" viewBox="0 0 28 28" fill="none" xmlns="http://www.w3.org/2000/svg">
<path d="M12 6C11.4477 6 11 6.44772 11 7C11 7.55229 11.4477 8 12 8H16C16.5523 8 17 7.55229 17 7C17 6.44772 16.5523 6 16 6H12Z" fill="#DD0A34"/>
<path fill-rule="evenodd" clip-rule="evenodd" d="M2.62434 13H3V26H1C0.447715 26 0 26.4477 0 27C0 27.5523 0.447715 28 1 28L27 28C27.5523 28 28 27.5523 28 27C28 26.4477 27.5523 26 27 26H25V13H25.3757C26.825 13 28 11.825 28 10.3757C28 9.47974 27.543 8.64573 26.7878 8.16364L15.6143 1.03055C14.6298 0.40209 13.3702 0.40209 12.3857 1.03055L1.2122 8.16364C0.457046 8.64573 0 9.47974 0 10.3757C0 11.825 1.17496 13 2.62434 13ZM2.62434 11H25.3757C25.7205 11 26 10.7205 26 10.3757C26 10.1625 25.8913 9.9641 25.7116 9.84941L14.5381 2.71632C14.2099 2.50683 13.7901 2.50683 13.4619 2.71632L2.28839 9.84941C2.10873 9.9641 2 10.1625 2 10.3757C2 10.7205 2.27953 11 2.62434 11ZM5 26V13H9V26H5ZM11 26V13H17V26L11 26ZM19 26V13H23V26H19Z" fill="#DD0A34"/>
</svg>
