<svg width="32" height="32" viewBox="0 0 32 32" fill="none" xmlns="http://www.w3.org/2000/svg">
<path d="M9.00122 5H22.9988C23.5511 5 23.9988 5.44772 23.9988 6V16.9857C23.9988 16.9857 24.0137 17.9857 25.0063 17.9857C25.9988 17.9857 25.9988 16.9857 25.9988 16.9857V6C25.9988 4.34315 24.6556 3 22.9988 3H9.00122C7.34437 3 6.00122 4.34315 6.00122 6V26C6.00122 27.6569 7.34437 29 9.00122 29H17.0311C17.0311 29 18.0311 29.1093 18.0311 28.0212C18.0311 26.9332 17.0311 27 17.0311 27H9.00122C8.44894 27 8.00122 26.5523 8.00122 26V6C8.00122 5.44772 8.44894 5 9.00122 5Z" fill="black"/>
<path d="M21 15H11C10.4477 15 10 14.5523 10 14C10 13.4477 10.4477 13 11 13H21C21.5523 13 22 13.4477 22 14C22 14.5523 21.5523 15 21 15Z" fill="black"/>
<path d="M11 17C10.4477 17 10 17.4477 10 18C10 18.5523 10.4477 19 11 19H16C16.5523 19 17 18.5523 17 18C17 17.4477 16.5523 17 16 17H11Z" fill="black"/>
<path fill-rule="evenodd" clip-rule="evenodd" d="M25.9032 25.2026C26.3163 24.6259 26.5596 23.9184 26.5596 23.1539C26.5596 21.2136 24.9926 19.6406 23.0596 19.6406C21.1266 19.6406 19.5596 21.2136 19.5596 23.1539C19.5596 23.8861 19.7827 24.5659 20.1644 25.1287L19.8411 27.2776C19.5785 29.023 21.4887 30.2642 22.9675 29.3091C22.9815 29.3001 22.9994 29.2998 23.0136 29.3084L23.0513 29.3311C24.5965 30.2638 26.5211 28.9515 26.2268 27.1659L25.9032 25.2026ZM24.5596 23.1539C24.5596 23.9855 23.888 24.6596 23.0596 24.6596C22.2311 24.6596 21.5596 23.9855 21.5596 23.1539C21.5596 22.3223 22.2311 21.6482 23.0596 21.6482C23.888 21.6482 24.5596 22.3223 24.5596 23.1539Z" fill="black"/>
</svg>
