<svg width="32" height="32" viewBox="0 0 32 32" fill="none" xmlns="http://www.w3.org/2000/svg">
<path d="M17.1551 5.3883C16.4626 4.87057 15.5374 4.87057 14.8449 5.3883L6.84493 11.3697C6.32564 11.758 6 12.3951 6 13.0936V24.8878C6 26.1069 6.94723 27 8 27H17.3535C17.3535 27 18.3411 27.0132 18.3411 28.0449C18.3411 29.0767 17.3535 29 17.3535 29H8C5.79086 29 4 27.1589 4 24.8878V13.0936C4 11.778 4.61234 10.5417 5.64731 9.76792L13.6473 3.78652C15.0499 2.73783 16.9501 2.73783 18.3527 3.78652L26.3527 9.76792C27.3877 10.5417 28 11.778 28 13.0936V21.0589C28 21.0589 28.0506 21.9857 27.0277 21.9857C26.0048 21.9857 26 21.0589 26 21.0589V13.0936C26 12.3951 25.6744 11.758 25.1551 11.3697L17.1551 5.3883Z" fill="black"/>
<path fill-rule="evenodd" clip-rule="evenodd" d="M29.6732 26.5209C30.1088 26.9176 30.1088 27.6029 29.6732 27.9996L26.3836 30.9953C25.9399 31.3994 25.2804 31.3339 24.9107 30.849C24.5409 30.3641 24.6009 29.6435 25.0446 29.2394L25.9629 28.4031L21.5309 28.403C20.9533 28.403 20.4851 27.8913 20.4851 27.2602C20.4851 26.629 20.9533 26.1173 21.5309 26.1173L25.9629 26.1174L25.0446 25.2811C24.6009 24.877 24.5409 24.1564 24.9107 23.6715C25.2804 23.1866 25.9399 23.1211 26.3836 23.5252L29.6732 26.5209Z" fill="black"/>
<path d="M15.9981 15.7266C17.6028 15.7266 18.9036 14.4448 18.9036 12.8636C18.9036 11.2824 17.6028 10.0006 15.9981 10.0006C14.3934 10.0006 13.0925 11.2824 13.0925 12.8636C13.0925 14.4448 14.3934 15.7266 15.9981 15.7266Z" fill="black"/>
<path d="M20.966 20.4273C20.7601 19.7852 20.2875 19.1909 19.5935 18.719C18.6399 18.0705 17.3466 17.7062 15.9981 17.7062C14.6495 17.7062 13.3562 18.0705 12.4026 18.719C11.7145 19.1869 11.244 19.7752 11.0354 20.4111C10.8944 20.8406 11.2166 21.2476 11.6552 21.357C15.1511 22.2288 17.273 22.1981 20.3613 21.3673C20.7901 21.2519 21.1016 20.8501 20.966 20.4273Z" fill="black"/>
</svg>
