<svg width="32" height="32" viewBox="0 0 32 32" fill="none" xmlns="http://www.w3.org/2000/svg">
<path d="M22.9988 5H9.00122C8.44894 5 8.00122 5.44772 8.00122 6V26C8.00122 26.5523 8.44894 27 9.00122 27H16.0821C16.0821 27 17.0821 26.9332 17.0821 28.0212C17.0821 29.1093 16.0821 29 16.0821 29H9.00122C7.34437 29 6.00122 27.6569 6.00122 26V6C6.00122 4.34315 7.34437 3 9.00122 3H22.9988C24.6556 3 25.9988 4.34315 25.9988 6V18.9914C25.9988 18.9914 25.9988 19.9914 25.0063 19.9914C24.0137 19.9914 23.9988 18.9914 23.9988 18.9914V6C23.9988 5.44772 23.5511 5 22.9988 5Z" fill="black"/>
<path d="M11 15H21C21.5523 15 22 14.5523 22 14C22 13.4477 21.5523 13 21 13H11C10.4477 13 10 13.4477 10 14C10 14.5523 10.4477 15 11 15Z" fill="black"/>
<path d="M10 18C10 17.4477 10.4477 17 11 17H16C16.5523 17 17 17.4477 17 18C17 18.5523 16.5523 19 16 19H11C10.4477 19 10 18.5523 10 18Z" fill="black"/>
<path d="M21.5858 23.1716C21.1953 22.781 20.5621 22.781 20.1716 23.1716C19.781 23.5621 19.781 24.1953 20.1716 24.5858L21.5858 26L20.1716 27.4142C19.781 27.8047 19.781 28.4379 20.1716 28.8284C20.5621 29.219 21.1953 29.219 21.5858 28.8284L23 27.4142L24.4142 28.8284C24.8047 29.219 25.4379 29.219 25.8284 28.8284C26.219 28.4379 26.219 27.8047 25.8284 27.4142L24.4142 26L25.8284 24.5858C26.219 24.1953 26.219 23.5621 25.8284 23.1716C25.4379 22.781 24.8047 22.781 24.4142 23.1716L23 24.5858L21.5858 23.1716Z" fill="black"/>
</svg>
