<svg width="32" height="32" viewBox="0 0 32 32" fill="none" xmlns="http://www.w3.org/2000/svg">
<path fill-rule="evenodd" clip-rule="evenodd" d="M16 27.0845C22.0751 27.0845 27 22.1596 27 16.0845C27 10.0093 22.0751 5.08447 16 5.08447C9.92487 5.08447 5 10.0093 5 16.0845C5 22.1596 9.92487 27.0845 16 27.0845ZM16 29.0845C23.1797 29.0845 29 23.2642 29 16.0845C29 8.90477 23.1797 3.08447 16 3.08447C8.8203 3.08447 3 8.90477 3 16.0845C3 23.2642 8.8203 29.0845 16 29.0845Z" fill="black"/>
<path fill-rule="evenodd" clip-rule="evenodd" d="M18.7852 21.2988C19.6136 21.2988 20.2852 20.6273 20.2852 19.7988V13.2988C20.2852 12.4704 19.6136 11.7988 18.7852 11.7988C17.9567 11.7988 17.2852 12.4704 17.2852 13.2988V19.7988C17.2852 20.6273 17.9567 21.2988 18.7852 21.2988Z" fill="black"/>
<path fill-rule="evenodd" clip-rule="evenodd" d="M13.2148 21.2988C14.0433 21.2988 14.7148 20.6273 14.7148 19.7988V13.2988C14.7148 12.4704 14.0433 11.7988 13.2148 11.7988C12.3864 11.7988 11.7148 12.4704 11.7148 13.2988V19.7988C11.7148 20.6273 12.3864 21.2988 13.2148 21.2988Z" fill="black"/>
</svg>
