<svg width="32" height="32" viewBox="0 0 32 32" fill="none" xmlns="http://www.w3.org/2000/svg">
<path fill-rule="evenodd" clip-rule="evenodd" d="M4.85721 12.8571V10.8571H26.8561L26.8571 12.8571H4.85721Z" fill="#DD0A34"/>
<path fill-rule="evenodd" clip-rule="evenodd" d="M26.8571 21.2143H4.85714V19.2143H26.8571V21.2143Z" fill="#DD0A34"/>
<path fill-rule="evenodd" clip-rule="evenodd" d="M16.9626 4.3755C16.9626 4.3755 16.9627 4.37578 17.8571 3.92857C18.7516 3.48136 18.7518 3.48178 18.7518 3.48178L18.7528 3.48386L18.7552 3.48855L18.763 3.50446L18.791 3.56186C18.8149 3.61131 18.8492 3.68292 18.8922 3.77522C18.9784 3.95977 19.0999 4.22726 19.245 4.5659C19.5351 5.24268 19.9205 6.2064 20.3058 7.36234C21.0725 9.66226 21.8571 12.7773 21.8571 15.9286C21.8571 19.0798 21.0725 22.1949 20.3058 24.4948C19.9205 25.6507 19.5351 26.6145 19.245 27.2912C19.0999 27.6299 18.9784 27.8974 18.8922 28.0819C18.8492 28.1742 18.8149 28.2458 18.791 28.2953L18.763 28.3527L18.7552 28.3686L18.7528 28.3733L18.7521 28.3748C18.7521 28.3748 18.7516 28.3758 17.8571 27.9286C16.9627 27.4814 16.9626 27.4816 16.9626 27.4816L16.9635 27.4798L16.9685 27.4697L16.9907 27.4242C17.0107 27.3828 17.0409 27.3196 17.0799 27.2362C17.1578 27.0691 17.2706 26.821 17.4067 26.5034C17.6792 25.8677 18.0438 24.9564 18.4085 23.8623C19.1418 21.6623 19.8571 18.7773 19.8571 15.9286C19.8571 13.0798 19.1418 10.1949 18.4085 7.9948C18.0438 6.90075 17.6792 5.98946 17.4067 5.35374C17.2706 5.03613 17.1578 4.788 17.0799 4.62099C17.0409 4.5375 17.0107 4.47435 16.9907 4.43298L16.9685 4.38747L16.9635 4.37733L16.9626 4.3755Z" fill="#DD0A34"/>
<path fill-rule="evenodd" clip-rule="evenodd" d="M15.0374 4.3755C15.0374 4.3755 15.0373 4.37578 14.1429 3.92857C13.2484 3.48136 13.2482 3.48178 13.2482 3.48178L13.2472 3.48386L13.2448 3.48855L13.237 3.50446L13.209 3.56186C13.1851 3.61131 13.1508 3.68292 13.1078 3.77522C13.0216 3.95977 12.9001 4.22726 12.755 4.5659C12.4649 5.24268 12.0795 6.2064 11.6942 7.36234C10.9275 9.66226 10.1429 12.7773 10.1429 15.9286C10.1429 19.0798 10.9275 22.1949 11.6942 24.4948C12.0795 25.6507 12.4649 26.6145 12.755 27.2912C12.9001 27.6299 13.0216 27.8974 13.1078 28.0819C13.1508 28.1742 13.1851 28.2458 13.209 28.2953L13.237 28.3527L13.2448 28.3686L13.2472 28.3733L13.2479 28.3748C13.2479 28.3748 13.2484 28.3758 14.1429 27.9286C15.0373 27.4814 15.0374 27.4816 15.0374 27.4816L15.0365 27.4798L15.0315 27.4697L15.0093 27.4242C14.9893 27.3828 14.9591 27.3196 14.9201 27.2362C14.8422 27.0691 14.7294 26.821 14.5933 26.5034C14.3208 25.8677 13.9562 24.9564 13.5915 23.8623C12.8582 21.6623 12.1429 18.7773 12.1429 15.9286C12.1429 13.0798 12.8582 10.1949 13.5915 7.9948C13.9562 6.90075 14.3208 5.98946 14.5933 5.35374C14.7294 5.03613 14.8422 4.788 14.9201 4.62099C14.9591 4.5375 14.9893 4.47435 15.0093 4.43298L15.0315 4.38747L15.0365 4.37733L15.0374 4.3755Z" fill="#DD0A34"/>
<path fill-rule="evenodd" clip-rule="evenodd" d="M16 27C22.0751 27 27 22.0751 27 16C27 9.92487 22.0751 5 16 5C9.92487 5 5 9.92487 5 16C5 22.0751 9.92487 27 16 27ZM16 29C23.1797 29 29 23.1797 29 16C29 8.8203 23.1797 3 16 3C8.8203 3 3 8.8203 3 16C3 23.1797 8.8203 29 16 29Z" fill="#DD0A34"/>
</svg>
