<svg width="32" height="32" viewBox="0 0 32 32" fill="none" xmlns="http://www.w3.org/2000/svg">
<path d="M20 13C20 15.2091 18.2091 17 16 17C13.7909 17 12 15.2091 12 13C12 10.7909 13.7909 9 16 9C18.2091 9 20 10.7909 20 13Z" fill="black"/>
<path d="M20.9496 20.4151C22.007 21.1449 22.6911 22.0841 22.9173 23.0915C23.0143 23.5232 22.7078 23.9195 22.2817 24.039C17.7957 25.2969 14.8258 25.3472 9.73914 24.0284C9.30292 23.9154 8.98529 23.5139 9.08619 23.0747C9.31615 22.0737 9.99859 21.1408 11.0501 20.4151C12.3629 19.509 14.1433 19 15.9998 19C17.8564 19 19.6368 19.509 20.9496 20.4151Z" fill="black"/>
<path fill-rule="evenodd" clip-rule="evenodd" d="M13.6473 3.78652C15.0499 2.73783 16.9501 2.73783 18.3527 3.78652L26.3527 9.76792C27.3877 10.5417 28 11.778 28 13.0936V24.8878C28 27.1589 26.2091 29 24 29H8C5.79086 29 4 27.1589 4 24.8878V13.0936C4 11.778 4.61234 10.5417 5.64731 9.76792L13.6473 3.78652ZM14.8449 5.3883C15.5374 4.87057 16.4626 4.87057 17.1551 5.3883L25.1551 11.3697C25.6744 11.758 26 12.3951 26 13.0936V24.8878C26 26.1069 25.0528 27 24 27H8C6.94723 27 6 26.1069 6 24.8878V13.0936C6 12.3951 6.32564 11.758 6.84493 11.3697L14.8449 5.3883Z" fill="black"/>
</svg>
