<svg width="20" height="16" viewBox="0 0 20 16" fill="none" xmlns="http://www.w3.org/2000/svg">
<path fill-rule="evenodd" clip-rule="evenodd" d="M15.8385 8.05439e-07H4.16146C3.63433 -1.63101e-05 3.17954 -3.10745e-05 2.80497 0.030572C2.40963 0.062873 2.01641 0.134189 1.63803 0.326983C1.07354 0.614603 0.614603 1.07354 0.326983 1.63803C0.134189 2.01641 0.062873 2.40963 0.030572 2.80497C-3.10596e-05 3.17954 -1.63023e-05 3.63429 8.04846e-07 4.16142V11.8385C-1.63023e-05 12.3657 -3.10596e-05 12.8205 0.030572 13.195C0.062873 13.5904 0.134189 13.9836 0.326983 14.362C0.614603 14.9265 1.07354 15.3854 1.63803 15.673C2.01641 15.8658 2.40963 15.9371 2.80497 15.9694C3.17951 16 3.63423 16 4.16131 16H10C10.5523 16 11 15.5523 11 15C11 14.4477 10.5523 14 10 14H4.2C3.62345 14 3.25118 13.9992 2.96784 13.9761C2.69618 13.9539 2.59546 13.9162 2.54601 13.891C2.35785 13.7951 2.20487 13.6422 2.109 13.454C2.0838 13.4045 2.04613 13.3038 2.02393 13.0322C2.00078 12.7488 2 12.3766 2 11.8V4.64125L8.1777 9.36537C9.25337 10.1879 10.7467 10.1879 11.8224 9.36537L18 4.64132V7C18 7.55229 18.4477 8 19 8C19.5523 8 20 7.55229 20 7V4.16144C20 3.6343 20 3.17954 19.9694 2.80497C19.9371 2.40963 19.8658 2.01641 19.673 1.63803C19.3854 1.07354 18.9265 0.614603 18.362 0.326983C17.9836 0.134189 17.5904 0.062873 17.195 0.030572C16.8205 -3.10745e-05 16.3657 -1.63101e-05 15.8385 8.05439e-07ZM17.7373 2.32445C17.657 2.23679 17.5612 2.16362 17.454 2.109C17.4045 2.0838 17.3038 2.04613 17.0322 2.02393C16.7488 2.00078 16.3766 2 15.8 2H4.2C3.62345 2 3.25118 2.00078 2.96784 2.02393C2.69618 2.04613 2.59546 2.0838 2.54601 2.109C2.43882 2.16361 2.34304 2.23677 2.26273 2.3244L9.3926 7.77665C9.75116 8.05084 10.2489 8.05084 10.6075 7.77665L17.7373 2.32445Z" fill="#DD0A34"/>
<path d="M14 12C14 11.4477 14.4477 11 15 11H19C19.5523 11 20 11.4477 20 12C20 12.5523 19.5523 13 19 13H15C14.4477 13 14 12.5523 14 12Z" fill="#DD0A34"/>
<path d="M15 14C14.4477 14 14 14.4477 14 15C14 15.5523 14.4477 16 15 16H18C18.5523 16 19 15.5523 19 15C19 14.4477 18.5523 14 18 14H15Z" fill="#DD0A34"/>
</svg>
