<svg width="32" height="32" viewBox="0 0 32 32" fill="none" xmlns="http://www.w3.org/2000/svg">
<path fill-rule="evenodd" clip-rule="evenodd" d="M13.7317 18.0001C16.9141 18.0002 19.9662 18.9333 22.2165 20.5943C23.7652 21.7375 24.8469 23.1609 25.3708 24.7031C25.7912 25.9402 24.8854 27.1351 23.6288 27.493C16.6771 29.4731 11.7533 29.5416 3.8994 27.4631C2.61139 27.1222 1.67078 25.9104 2.10903 24.6522C2.63937 23.1296 3.71423 21.7249 5.24591 20.5943C7.49635 18.9332 10.5491 18.0001 13.7317 18.0001ZM23.4665 25.3154C23.0886 24.2266 22.2889 23.1336 21.0287 22.2035C19.1686 20.8305 16.5477 20.0001 13.7312 20.0001C10.9146 20.0001 8.29375 20.8305 6.43364 22.2035C5.18879 23.1223 4.3932 24.2003 4.00985 25.2757C4.0104 25.2765 4.01097 25.2774 4.01156 25.2783C4.03374 25.3109 4.07768 25.3606 4.15092 25.4111C4.22351 25.4613 4.31251 25.5035 4.41108 25.5296C11.9385 27.5218 16.4956 27.4452 23.0809 25.5695C23.2845 25.5115 23.414 25.3945 23.4629 25.3209C23.4642 25.319 23.4654 25.3171 23.4665 25.3154Z" fill="black"/>
<path fill-rule="evenodd" clip-rule="evenodd" d="M13.7317 16.0001C17.0454 16.0001 19.7317 13.0899 19.7317 9.50006C19.7317 5.91021 17.0454 3.00006 13.7317 3.00006C10.418 3.00006 7.73168 5.91021 7.73168 9.50006C7.73168 13.0897 10.4182 15.9998 13.7317 16.0001ZM13.7317 14.0001C15.7931 14.0001 17.7317 12.1391 17.7317 9.50006C17.7317 6.86103 15.7931 5.00006 13.7317 5.00006C11.6703 5.00006 9.73168 6.86103 9.73168 9.50006C9.73168 12.1391 11.6703 14.0001 13.7317 14.0001Z" fill="black"/>
<path fill-rule="evenodd" clip-rule="evenodd" d="M23.0087 17.8678C23.0817 17.3203 23.5847 16.9357 24.1321 17.0087C27.6462 17.4773 29.5718 19.0053 30.5604 20.7747C31.5004 22.4569 31.5001 24.2064 31.5 24.9739C31.5 24.9827 31.5 24.9914 31.5 24.9999C31.5 25.5522 31.0522 25.9999 30.5 25.9999C29.9477 25.9999 29.5 25.5522 29.5 24.9999C29.5 24.2533 29.4887 22.957 28.8145 21.7502C28.1781 20.6112 26.8537 19.3893 23.8678 18.9912C23.3204 18.9182 22.9357 18.4152 23.0087 17.8678Z" fill="black"/>
<path fill-rule="evenodd" clip-rule="evenodd" d="M21.0183 2.80924C21.1236 2.26709 21.6485 1.91297 22.1907 2.0183C25.3631 2.63461 26.8435 5.40896 26.9877 8.07084C27.1301 10.6985 26.0052 13.6664 23.4663 14.8995C22.9695 15.1407 22.3712 14.9336 22.1299 14.4368C21.8886 13.94 22.0958 13.3417 22.5926 13.1004C24.1716 12.3335 25.1057 10.3014 24.9907 8.17905C24.8775 6.09093 23.7843 4.36528 21.8092 3.98159C21.2671 3.87627 20.913 3.35138 21.0183 2.80924Z" fill="black"/>
</svg>
