<svg width="20" height="26" viewBox="0 0 20 26" fill="none" xmlns="http://www.w3.org/2000/svg">
<path fill-rule="evenodd" clip-rule="evenodd" d="M18 19.6V9.43772C18 8.63826 17.988 8.55303 17.9741 8.49332C17.9512 8.39447 17.9134 8.29969 17.8619 8.21223C17.8309 8.1594 17.7809 8.08933 17.2304 7.50961L12.8263 2.8719C12.2349 2.2492 12.1617 2.19207 12.1067 2.15695C12.0153 2.09864 11.915 2.05559 11.8098 2.02947C11.7465 2.01373 11.6546 2 10.7959 2H6.4C5.24689 2 4.50235 2.00156 3.93567 2.04785C3.39235 2.09225 3.19091 2.1676 3.09202 2.21799C2.71569 2.40973 2.40973 2.71569 2.21799 3.09202C2.1676 3.19091 2.09225 3.39235 2.04785 3.93567C2.00156 4.50235 2 5.24689 2 6.4V19.6C2 20.7531 2.00156 21.4977 2.04785 22.0643C2.09225 22.6077 2.1676 22.8091 2.21799 22.908C2.40973 23.2843 2.71569 23.5903 3.09202 23.782C3.19091 23.8324 3.39235 23.9078 3.93567 23.9521C4.50235 23.9984 5.24689 24 6.4 24H13.6C14.7531 24 15.4977 23.9984 16.0643 23.9521C16.6077 23.9078 16.8091 23.8324 16.908 23.782C17.2843 23.5903 17.5903 23.2843 17.782 22.908C17.8324 22.8091 17.9078 22.6077 17.9521 22.0643C17.9984 21.4977 18 20.7531 18 19.6ZM0.435974 2.18404C0 3.03969 0 4.15979 0 6.4V19.6C0 21.8402 0 22.9603 0.435974 23.816C0.819467 24.5686 1.43139 25.1805 2.18404 25.564C3.03969 26 4.15979 26 6.4 26H13.6C15.8402 26 16.9603 26 17.816 25.564C18.5686 25.1805 19.1805 24.5686 19.564 23.816C20 22.9603 20 21.8402 20 19.6V9.43772C20 8.72986 20 8.37593 19.9224 8.04152C19.8537 7.74497 19.7402 7.46062 19.5858 7.19823C19.4118 6.90233 19.1681 6.64569 18.6806 6.1324L14.2765 1.49468C13.7533 0.943659 13.4916 0.668149 13.1823 0.470839C12.9082 0.295934 12.6074 0.166771 12.2918 0.0884048C11.9357 0 11.5558 0 10.7959 0H6.4C4.15979 0 3.03969 0 2.18404 0.435974C1.43139 0.819467 0.819467 1.43139 0.435974 2.18404Z" fill="#DD0A34"/>
<path fill-rule="evenodd" clip-rule="evenodd" d="M4 18C4 17.4477 4.44772 17 5 17H9.5C10.0523 17 10.5 17.4477 10.5 18C10.5 18.5523 10.0523 19 9.5 19H5C4.44772 19 4 18.5523 4 18Z" fill="#DD0A34"/>
<path fill-rule="evenodd" clip-rule="evenodd" d="M4 14C4 13.4477 4.44772 13 5 13L14 13C14.5523 13 15 13.4477 15 14C15 14.5523 14.5523 15 14 15L5 15C4.44771 15 4 14.5523 4 14Z" fill="#DD0A34"/>
<path fill-rule="evenodd" clip-rule="evenodd" d="M9.90967 6V1H11.9097V6C11.9097 7.10457 12.8051 8 13.9097 8H19.9097V10H13.9097C11.7005 10 9.90967 8.20914 9.90967 6Z" fill="#DD0A34"/>
</svg>
