<svg width="32" height="32" viewBox="0 0 32 32" fill="none" xmlns="http://www.w3.org/2000/svg">
<path fill-rule="evenodd" clip-rule="evenodd" d="M18 6H8C6.89543 6 6 6.89543 6 8V25C6 25.5523 6.44772 26 7 26H15.5H19C19.5523 26 20 25.5523 20 25V8C20 6.89543 19.1046 6 18 6ZM7 28H15.5H19H25C26.6569 28 28 26.6569 28 25V13C28 10.7909 26.2091 9 24 9H22V8C22 5.79086 20.2091 4 18 4H8C5.79086 4 4 5.79086 4 8V25C4 26.6569 5.34315 28 7 28ZM25 26H21.8293C21.9398 25.6872 22 25.3506 22 25V11H24C25.1046 11 26 11.8954 26 13V25C26 25.5523 25.5523 26 25 26ZM9 15C8.44772 15 8 15.4477 8 16C8 16.5523 8.44772 17 9 17H17C17.5523 17 18 16.5523 18 16C18 15.4477 17.5523 15 17 15H9ZM8 21C8 20.4477 8.44772 20 9 20H17C17.5523 20 18 20.4477 18 21C18 21.5523 17.5523 22 17 22H9C8.44772 22 8 21.5523 8 21ZM9 12H17C17.5523 12 18 11.5523 18 11C18 10.4477 17.5523 10 17 10L9 10C8.44772 10 8 10.4477 8 11C8 11.5523 8.44772 12 9 12Z" fill="#DD0A34"/>
</svg>
