<svg width="28" height="24" viewBox="0 0 28 24" fill="none" xmlns="http://www.w3.org/2000/svg">
<path fill-rule="evenodd" clip-rule="evenodd" d="M12.1864 1.30871C13.6856 -0.197412 16.1007 -0.268403 17.6858 1.14706L18.2124 1.61735C18.5789 1.94468 19.0531 2.1256 19.5446 2.1256H27C27.5523 2.1256 28 2.57332 28 3.1256C28 3.67789 27.5523 4.1256 27 4.1256H25V15C25 15.1459 24.9688 15.2844 24.9127 15.4093H27C27.5523 15.4093 28 15.8571 28 16.4093C28 16.9616 27.5523 17.4093 27 17.4093H20.6136C20.496 17.5788 20.3642 17.7408 20.2184 17.8934L15.6281 22.6972C14.192 24.2001 11.8439 24.3525 10.2256 23.0478L4.19657 18.1872C3.841 17.9005 3.39803 17.7442 2.9413 17.7442H1C0.447715 17.7442 0 17.2965 0 16.7442C0 16.1919 0.447715 15.7442 1 15.7442H2.9413C2.96088 15.7442 2.98045 15.7443 3 15.7446V4.34884H1C0.447715 4.34884 0 3.90113 0 3.34884C0 2.79656 0.447715 2.34884 1 2.34884L11.1511 2.34885L12.1864 1.30871ZM23.0873 15.4093C23.0312 15.2844 23 15.1459 23 15V4.1256H19.5446C18.5617 4.1256 17.6133 3.76376 16.8802 3.10911L16.3536 2.63881C15.5611 1.93108 14.3535 1.96658 13.6039 2.71964L9.61506 6.72706C9.30092 7.04267 9.21372 7.51921 9.39575 7.92561C9.63211 8.45329 10.2433 8.69972 10.7796 8.48355L13.6341 7.33289C15.5254 6.5705 17.6874 7.35289 18.6529 9.14904L20.8497 13.2362C21.2167 13.9189 21.3684 14.6727 21.3167 15.4093H23.0873ZM5.45183 16.6302C5.29502 16.5037 5.1297 16.39 4.95746 16.2895C4.98513 16.1979 5 16.1007 5 16V4.34884L9.16038 4.34884L8.19757 5.31613C7.29932 6.21856 7.05 7.58115 7.57049 8.74317C8.2463 10.252 9.99397 10.9566 11.5273 10.3385L14.3818 9.18785C15.3275 8.80666 16.4085 9.19785 16.8912 10.0959L19.0881 14.1831C19.451 14.8583 19.3927 15.6725 18.9594 16.2848L15.9681 13.2947C15.5754 12.9022 14.9431 12.8998 14.5557 13.2894C14.1683 13.6789 14.1725 14.3129 14.5651 14.7054L17.5998 17.7388L16.7602 18.6175L13.8361 15.6915C13.4472 15.3024 12.8145 15.3051 12.4229 15.6976C12.0312 16.0901 12.029 16.7237 12.4178 17.1128L15.3726 20.0695L14.1821 21.3155C13.464 22.0669 12.29 22.1431 11.4809 21.4908L5.45183 16.6302Z" fill="#DD0A34"/>
</svg>
