<svg width="32" height="32" viewBox="0 0 32 32" fill="none" xmlns="http://www.w3.org/2000/svg">
<path d="M15.8823 22.8181C16.8177 22.8181 17.576 23.5992 17.576 24.5628C17.576 24.8522 17.7726 25.1442 18.0535 25.1444H18.1406C19.076 25.1444 19.8343 25.9255 19.8343 26.8891C19.8343 27.8527 19.076 28.6338 18.1406 28.6338H5.72008C4.78467 28.6338 4.02637 27.8527 4.02637 26.8891C4.02637 25.9255 4.78467 25.1444 5.72008 25.1444H5.80719C6.08806 25.1442 6.28465 24.8522 6.28465 24.5628C6.28465 23.5992 7.04295 22.8181 7.97836 22.8181H15.8823ZM14.0045 5.21537C14.3165 4.65935 15.0081 4.46885 15.5482 4.78941L22.7244 9.05805C23.2648 9.37946 23.4498 10.0916 23.1379 10.6483L23.0751 10.7494C22.7399 11.2271 22.1005 11.3753 21.5942 11.0742C21.4141 10.9675 21.1833 11.0309 21.0793 11.2162L20.7032 11.8875C20.3915 12.444 20.5766 13.1565 21.1167 13.4778L29.2732 18.3291C29.9933 18.7577 30.2401 19.7065 29.8246 20.4486L29.7408 20.5827C29.2939 21.2202 28.4412 21.4183 27.7659 21.0166L19.6116 16.1675C19.0706 15.8459 18.3789 16.0373 18.0667 16.5946L17.6907 17.2659C17.5873 17.451 17.6483 17.6878 17.8275 17.7952C18.3678 18.1167 18.5528 18.8287 18.241 19.3855L18.1781 19.4854C17.8654 19.9314 17.2892 20.0912 16.802 19.8659L16.6983 19.8114L9.521 15.5428C8.98126 15.2212 8.7959 14.509 9.1075 13.9526C9.41951 13.3962 10.1109 13.2057 10.6512 13.5266C10.8087 13.6202 11.0058 13.584 11.1221 13.4494L11.1662 13.3846L14.5558 7.33492C14.6463 7.17314 14.6103 6.97249 14.4797 6.85331L14.418 6.80673C13.878 6.48513 13.6926 5.77191 14.0045 5.21537ZM16.6983 19.8114L16.695 19.808C16.6867 19.8031 16.6788 19.7974 16.6708 19.7921L16.6983 19.8114ZM16.6013 19.7455L16.6498 19.7785C16.6454 19.7754 16.641 19.7713 16.6366 19.7683C16.6246 19.7599 16.6123 19.7523 16.6002 19.7444L16.6013 19.7455ZM16.6597 8.18456C16.6519 8.20633 16.6437 8.22914 16.6344 8.25044L16.512 8.49806L13.1223 14.5478C13.0579 14.6626 12.9836 14.7691 12.9062 14.8703L15.5714 16.456C15.6177 16.3369 15.6705 16.2183 15.7346 16.1039L16.1106 15.4326L16.201 15.2793L18.7482 10.7244L19.1242 10.0531L19.2709 9.82022C19.2855 9.79929 19.3015 9.77886 19.3172 9.75888C19.3245 9.74956 19.332 9.73988 19.3392 9.73049L16.6741 8.14594C16.6691 8.15872 16.6644 8.17162 16.6597 8.18456Z" fill="black"/>
</svg>
