<svg width="16" height="16" viewBox="0 0 16 16" fill="none" xmlns="http://www.w3.org/2000/svg">
<path d="M1.98933 0.575364C1.59881 0.18484 0.965644 0.18484 0.57512 0.575364C0.184595 0.965888 0.184595 1.59905 0.57512 1.98958L6.58564 8.00009L0.575336 14.0104C0.184812 14.4009 0.184812 15.0341 0.575336 15.4246C0.965861 15.8151 1.59903 15.8151 1.98955 15.4246L7.99985 9.41431L14.0101 15.4246C14.4007 15.8151 15.0338 15.8151 15.4244 15.4246C15.8149 15.0341 15.8149 14.4009 15.4244 14.0104L9.41406 8.00009L15.4246 1.98958C15.8151 1.59905 15.8151 0.965888 15.4246 0.575364C15.0341 0.18484 14.4009 0.18484 14.0104 0.575364L7.99985 6.58588L1.98933 0.575364Z" fill="#DD0A34"/>
</svg>
