<svg width="18" height="20" viewBox="0 0 18 20" fill="none" xmlns="http://www.w3.org/2000/svg">
<path fill-rule="evenodd" clip-rule="evenodd" d="M4 3C4 1.34315 5.34315 0 7 0H11C12.6569 0 14 1.34315 14 3V4H16.5C17.0523 4 17.5 4.44772 17.5 5C17.5 5.55228 17.0523 6 16.5 6H16.0002C16.0001 6.03786 15.9979 6.07611 15.9935 6.11462L14.6978 17.3439C14.5232 18.8576 13.2414 20 11.7176 20H6.28259C4.75878 20 3.47703 18.8576 3.30237 17.3439L2.00668 6.11462C2.00224 6.07611 2.00005 6.03786 2 6H1.5C0.947715 6 0.5 5.55228 0.5 5C0.5 4.44772 0.947715 4 1.5 4H4V3ZM4.00673 6L5.28918 17.1146C5.34741 17.6192 5.77466 18 6.28259 18H11.7176C12.2255 18 12.6528 17.6192 12.711 17.1146L13.9935 6H4.00673ZM12 3V4H6V3C6 2.44772 6.44772 2 7 2H11C11.5523 2 12 2.44772 12 3Z" fill="#DD0A34"/>
</svg>
