<svg width="24" height="24" viewBox="0 0 24 24" fill="none" xmlns="http://www.w3.org/2000/svg">
<path fill-rule="evenodd" clip-rule="evenodd" d="M10.1031 15.6967C10.0885 15.7003 10.0738 15.7036 10.0592 15.7068C10.0097 15.7176 9.95966 15.7266 9.90921 15.7336L8.28675 15.9604C8.15129 15.9793 8.03721 15.8597 8.06253 15.7253L8.34993 14.1992C8.36474 14.1206 8.3842 14.0432 8.4081 13.9675C8.41292 13.9522 8.41791 13.937 8.42309 13.9219C8.523 13.6299 8.68958 13.3637 8.91117 13.1452L18.9909 3.20657C19.582 2.62374 20.5344 2.63282 21.1143 3.2268C21.6918 3.81832 21.6809 4.76585 21.0899 5.34389L11.0309 15.1827C10.7727 15.4352 10.4518 15.6123 10.1031 15.6967ZM22.4884 6.77366L12.4294 16.6124C11.8185 17.21 11.0323 17.5961 10.186 17.7144L8.56353 17.9411C7.07339 18.1493 5.81861 16.8337 6.09708 15.3551L6.38448 13.8291C6.53525 13.0285 6.92687 12.2931 7.50696 11.7211L17.5867 1.78242C18.9671 0.421349 21.1912 0.442543 22.5454 1.82967C23.894 3.21103 23.8685 5.42378 22.4884 6.77366Z" fill="#DD0A34"/>
<path fill-rule="evenodd" clip-rule="evenodd" d="M9.43077 10.9247C9.82619 10.5391 10.4593 10.5471 10.8449 10.9425L13.7616 13.9337C14.1471 14.3291 14.1392 14.9622 13.7437 15.3478C13.3483 15.7333 12.7152 15.7254 12.3296 15.3299L9.41294 12.3388C9.02737 11.9433 9.03535 11.3102 9.43077 10.9247Z" fill="#DD0A34"/>
<path fill-rule="evenodd" clip-rule="evenodd" d="M0 4C0 1.79086 1.79086 0 4 0H9C9.55229 0 10 0.447715 10 1C10 1.55228 9.55229 2 9 2H4C2.89543 2 2 2.89543 2 4V20C2 21.1046 2.89543 22 4 22H20C21.1046 22 22 21.1046 22 20V16.1273C22 15.575 22.4477 15.1273 23 15.1273C23.5523 15.1273 24 15.575 24 16.1273V20C24 22.2091 22.2091 24 20 24H4C1.79086 24 0 22.2091 0 20V4Z" fill="#DD0A34"/>
</svg>
