<svg width="25" height="31" viewBox="0 0 25 31" fill="none" xmlns="http://www.w3.org/2000/svg">
<path d="M21 3L21 8" stroke="#DD0A34" stroke-width="2" stroke-linecap="round"/>
<path d="M24 4L21 1L18 4" stroke="#DD0A34" stroke-width="2" stroke-linecap="round" stroke-linejoin="round"/>
<path fill-rule="evenodd" clip-rule="evenodd" d="M6.66667 7C5.5621 7 4.66667 7.89543 4.66667 9V17C4.66667 17.5523 4.21895 18 3.66667 18C3.11438 18 2.66667 17.5523 2.66667 17V9C2.66667 6.79086 4.45753 5 6.66667 5H13.8382C14.6339 5 15.397 5.31607 15.9596 5.87868L21.788 11.7071C22.3506 12.2697 22.6667 13.0328 22.6667 13.8284V27C22.6667 29.2091 20.8758 31 18.6667 31H6.66667C4.45753 31 2.66667 29.2091 2.66667 27V26C2.66667 25.4477 3.11438 25 3.66667 25C4.21895 25 4.66667 25.4477 4.66667 26V27C4.66667 28.1046 5.5621 29 6.66667 29H18.6667C19.7712 29 20.6667 28.1046 20.6667 27V13.8284C20.6667 13.5632 20.5613 13.3089 20.3738 13.1213L14.5453 7.29289C14.3578 7.10536 14.1035 7 13.8382 7H6.66667Z" fill="#DD0A34"/>
<path fill-rule="evenodd" clip-rule="evenodd" d="M12.5763 11V6H14.5763V11C14.5763 12.1046 15.4718 13 16.5763 13H22.5763V15H16.5763C14.3672 15 12.5763 13.2091 12.5763 11Z" fill="#DD0A34"/>
<path d="M5.48062 19.5702H6.86425L5.56236 21.4919L6.86425 23.4352H5.43976L4.72167 22.2638L4.05613 23.4352H2.66667L3.96856 21.4919L2.66667 19.5702H4.09116L4.80341 20.7362L5.48062 19.5702Z" fill="#DD0A34"/>
<path d="M7.27647 19.5702H8.4616V22.4744H10.0788V23.4352H7.27647V19.5702Z" fill="#DD0A34"/>
<path d="M11.9911 23.5C11.3412 23.5 10.7749 23.3381 10.2923 23.0142L10.8002 22.1829C11.1738 22.424 11.5747 22.5445 12.0028 22.5445C12.1896 22.5445 12.3259 22.5229 12.4115 22.4798C12.4971 22.4366 12.5399 22.3664 12.5399 22.2692C12.5399 22.2009 12.5146 22.1487 12.464 22.1127C12.4134 22.0767 12.3239 22.0461 12.1955 22.0209L11.5124 21.8914C11.166 21.8266 10.8994 21.697 10.7126 21.5027C10.5297 21.3048 10.4382 21.0547 10.4382 20.7524C10.4382 20.3601 10.5822 20.0542 10.8702 19.8347C11.1582 19.6116 11.5591 19.5 12.0729 19.5C12.3609 19.5 12.6255 19.5342 12.8668 19.6026C13.1082 19.6673 13.3378 19.7699 13.5557 19.9103L13.077 20.774C12.9136 20.6768 12.7384 20.6012 12.5516 20.5472C12.3648 20.4897 12.1838 20.4609 12.0087 20.4609C11.709 20.4609 11.5591 20.549 11.5591 20.7254C11.5591 20.7937 11.5844 20.8495 11.635 20.8927C11.6856 20.9323 11.7673 20.9611 11.8802 20.9791L12.5633 21.0978C12.9174 21.159 13.1899 21.2904 13.3806 21.4919C13.5713 21.6898 13.6667 21.9381 13.6667 22.2368C13.6667 22.4888 13.5966 22.7101 13.4565 22.9008C13.3203 23.0915 13.1257 23.2391 12.8727 23.3435C12.6197 23.4478 12.3259 23.5 11.9911 23.5Z" fill="#DD0A34"/>
<path fill-rule="evenodd" clip-rule="evenodd" d="M2.66667 16.3333H13.6667C15.1394 16.3333 16.3333 17.5272 16.3333 19V24C16.3333 25.4728 15.1394 26.6667 13.6667 26.6667H2.66667C1.19391 26.6667 0 25.4728 0 24V19C0 17.5272 1.19391 16.3333 2.66667 16.3333ZM2.66667 18C2.11438 18 1.66667 18.4477 1.66667 19V24C1.66667 24.5523 2.11438 25 2.66667 25H13.6667C14.219 25 14.6667 24.5523 14.6667 24V19C14.6667 18.4477 14.219 18 13.6667 18H2.66667Z" fill="#DD0A34"/>
</svg>
