<svg width="27" height="32" viewBox="0 0 27 32" fill="none" xmlns="http://www.w3.org/2000/svg">
<path fill-rule="evenodd" clip-rule="evenodd" d="M6.66667 8C5.5621 8 4.66667 8.89543 4.66667 10V18C4.66667 18.5523 4.21895 19 3.66667 19C3.11438 19 2.66667 18.5523 2.66667 18V10C2.66667 7.79086 4.45753 6 6.66667 6H13.8382C14.6339 6 15.397 6.31607 15.9596 6.87868L21.788 12.7071C22.3506 13.2697 22.6667 14.0328 22.6667 14.8284V28C22.6667 30.2091 20.8758 32 18.6667 32H6.66667C4.45753 32 2.66667 30.2091 2.66667 28V27C2.66667 26.4477 3.11438 26 3.66667 26C4.21895 26 4.66667 26.4477 4.66667 27V28C4.66667 29.1046 5.5621 30 6.66667 30H18.6667C19.7712 30 20.6667 29.1046 20.6667 28V14.8284C20.6667 14.5632 20.5613 14.3089 20.3738 14.1213L14.5453 8.29289C14.3578 8.10536 14.1035 8 13.8382 8H6.66667Z" fill="#DD0A34"/>
<path fill-rule="evenodd" clip-rule="evenodd" d="M12.5763 12V7H14.5763V12C14.5763 13.1046 15.4718 14 16.5763 14H22.5763V16H16.5763C14.3672 16 12.5763 14.2091 12.5763 12Z" fill="#DD0A34"/>
<path d="M5.48062 20.5702H6.86425L5.56236 22.4919L6.86425 24.4352H5.43976L4.72167 23.2638L4.05613 24.4352H2.66667L3.96856 22.4919L2.66667 20.5702H4.09116L4.80341 21.7362L5.48062 20.5702Z" fill="#DD0A34"/>
<path d="M7.27647 20.5702H8.4616V23.4744H10.0788V24.4352H7.27647V20.5702Z" fill="#DD0A34"/>
<path d="M11.9911 24.5C11.3412 24.5 10.7749 24.3381 10.2923 24.0142L10.8002 23.1829C11.1738 23.424 11.5747 23.5445 12.0028 23.5445C12.1896 23.5445 12.3259 23.5229 12.4115 23.4798C12.4971 23.4366 12.5399 23.3664 12.5399 23.2692C12.5399 23.2009 12.5146 23.1487 12.464 23.1127C12.4134 23.0767 12.3239 23.0461 12.1955 23.0209L11.5124 22.8914C11.166 22.8266 10.8994 22.697 10.7126 22.5027C10.5297 22.3048 10.4382 22.0547 10.4382 21.7524C10.4382 21.3601 10.5822 21.0542 10.8702 20.8347C11.1582 20.6116 11.5591 20.5 12.0729 20.5C12.3609 20.5 12.6255 20.5342 12.8668 20.6026C13.1082 20.6673 13.3378 20.7699 13.5557 20.9103L13.077 21.774C12.9136 21.6768 12.7384 21.6012 12.5516 21.5472C12.3648 21.4897 12.1838 21.4609 12.0087 21.4609C11.709 21.4609 11.5591 21.549 11.5591 21.7254C11.5591 21.7937 11.5844 21.8495 11.635 21.8927C11.6856 21.9323 11.7673 21.9611 11.8802 21.9791L12.5633 22.0978C12.9174 22.159 13.1899 22.2904 13.3806 22.4919C13.5713 22.6898 13.6667 22.9381 13.6667 23.2368C13.6667 23.4888 13.5966 23.7101 13.4565 23.9008C13.3203 24.0915 13.1257 24.2391 12.8727 24.3435C12.6197 24.4478 12.3259 24.5 11.9911 24.5Z" fill="#DD0A34"/>
<path fill-rule="evenodd" clip-rule="evenodd" d="M2.66667 17.3333H13.6667C15.1394 17.3333 16.3333 18.5272 16.3333 20V25C16.3333 26.4728 15.1394 27.6667 13.6667 27.6667H2.66667C1.19391 27.6667 0 26.4728 0 25V20C0 18.5272 1.19391 17.3333 2.66667 17.3333ZM2.66667 19C2.11438 19 1.66667 19.4477 1.66667 20V25C1.66667 25.5523 2.11438 26 2.66667 26H13.6667C14.219 26 14.6667 25.5523 14.6667 25V20C14.6667 19.4477 14.219 19 13.6667 19H2.66667Z" fill="#DD0A34"/>
<path d="M24.1553 0.75C24.864 0.75 25.4505 1.09172 25.7617 1.58398C26.0558 2.04932 26.0981 2.64366 25.7725 3.16895L25.7021 3.27344L23.2021 6.70312V9.13477C23.2021 9.78222 22.6115 10.25 21.958 10.25H20.7148C20.0613 10.25 19.4708 9.78222 19.4707 9.13477V6.70312L16.9707 3.27344C16.5702 2.72381 16.5974 2.08042 16.9111 1.58398C17.2224 1.09172 17.8088 0.75 18.5176 0.75H24.1553ZM18.5176 1.94238C18.2854 1.94238 18.1148 2.05246 18.0312 2.18457C17.9504 2.31245 17.9437 2.46676 18.0469 2.6084L20.5635 6.06152L20.6504 6.20215C20.7256 6.34746 20.7656 6.50751 20.7656 6.67188V9.05762H21.9072V6.67188C21.9073 6.45251 21.9788 6.24073 22.1094 6.06152L24.626 2.6084L24.6592 2.55469C24.7261 2.4285 24.7124 2.29654 24.6416 2.18457C24.5581 2.05246 24.3875 1.94238 24.1553 1.94238H18.5176Z" fill="#DD0A34" stroke="#DD0A34" stroke-width="0.5" stroke-linecap="round"/>
</svg>
