<svg width="46" height="27" viewBox="0 0 46 27" fill="none" xmlns="http://www.w3.org/2000/svg">
<path fill-rule="evenodd" clip-rule="evenodd" d="M30.1615 8.05439e-07H41.8385C42.3657 -1.63101e-05 42.8205 -3.10745e-05 43.195 0.030572C43.5904 0.062873 43.9836 0.134189 44.362 0.326983C44.9265 0.614603 45.3854 1.07354 45.673 1.63803C45.8658 2.01641 45.9371 2.40963 45.9694 2.80497C46 3.17954 46 3.63429 46 4.16142V11.8385C46 12.3657 46 12.8205 45.9694 13.195C45.9371 13.5904 45.8658 13.9836 45.673 14.362C45.3854 14.9265 44.9265 15.3854 44.362 15.673C43.9836 15.8658 43.5904 15.9371 43.195 15.9694C42.8205 16 42.3658 16 41.8387 16H36C35.4477 16 35 15.5523 35 15C35 14.4477 35.4477 14 36 14H41.8C42.3765 14 42.7488 13.9992 43.0322 13.9761C43.3038 13.9539 43.4045 13.9162 43.454 13.891C43.6421 13.7951 43.7951 13.6422 43.891 13.454C43.9162 13.4045 43.9539 13.3038 43.9761 13.0322C43.9992 12.7488 44 12.3766 44 11.8V4.64125L37.8223 9.36537C36.7466 10.1879 35.2533 10.1879 34.1776 9.36537L28 4.64132V7C28 7.55229 27.5523 8 27 8C26.4477 8 26 7.55229 26 7V4.16144C26 3.6343 26 3.17954 26.0306 2.80497C26.0629 2.40963 26.1342 2.01641 26.327 1.63803C26.6146 1.07354 27.0735 0.614603 27.638 0.326983C28.0164 0.134189 28.4096 0.062873 28.805 0.030572C29.1795 -3.10745e-05 29.6343 -1.63101e-05 30.1615 8.05439e-07ZM28.2627 2.32445C28.343 2.23679 28.4388 2.16362 28.546 2.109C28.5955 2.0838 28.6962 2.04613 28.9678 2.02393C29.2512 2.00078 29.6234 2 30.2 2H41.8C42.3765 2 42.7488 2.00078 43.0322 2.02393C43.3038 2.04613 43.4045 2.0838 43.454 2.109C43.5612 2.16361 43.657 2.23677 43.7373 2.3244L36.6074 7.77665C36.2488 8.05084 35.7511 8.05084 35.3925 7.77665L28.2627 2.32445Z" fill="#DD0A34"/>
<path fill-rule="evenodd" clip-rule="evenodd" d="M15.8385 8.05439e-07H4.16146C3.63433 -1.63101e-05 3.17954 -3.10745e-05 2.80497 0.030572C2.40963 0.062873 2.01641 0.134189 1.63803 0.326983C1.07354 0.614603 0.614603 1.07354 0.326983 1.63803C0.134189 2.01641 0.062873 2.40963 0.030572 2.80497C-3.10596e-05 3.17954 -1.63023e-05 3.63429 8.04846e-07 4.16142V11.8385C-1.63023e-05 12.3657 -3.10596e-05 12.8205 0.030572 13.195C0.062873 13.5904 0.134189 13.9836 0.326983 14.362C0.614603 14.9265 1.07354 15.3854 1.63803 15.673C2.01641 15.8658 2.40963 15.9371 2.80497 15.9694C3.17951 16 3.63423 16 4.16131 16H10C10.5523 16 11 15.5523 11 15C11 14.4477 10.5523 14 10 14H4.2C3.62345 14 3.25118 13.9992 2.96784 13.9761C2.69618 13.9539 2.59546 13.9162 2.54601 13.891C2.35785 13.7951 2.20487 13.6422 2.109 13.454C2.0838 13.4045 2.04613 13.3038 2.02393 13.0322C2.00078 12.7488 2 12.3766 2 11.8V4.64125L8.1777 9.36537C9.25337 10.1879 10.7467 10.1879 11.8224 9.36537L18 4.64132V7C18 7.55229 18.4477 8 19 8C19.5523 8 20 7.55229 20 7V4.16144C20 3.6343 20 3.17954 19.9694 2.80497C19.9371 2.40963 19.8658 2.01641 19.673 1.63803C19.3854 1.07354 18.9265 0.614603 18.362 0.326983C17.9836 0.134189 17.5904 0.062873 17.195 0.030572C16.8205 -3.10745e-05 16.3657 -1.63101e-05 15.8385 8.05439e-07ZM17.7373 2.32445C17.657 2.23679 17.5612 2.16362 17.454 2.109C17.4045 2.0838 17.3038 2.04613 17.0322 2.02393C16.7488 2.00078 16.3766 2 15.8 2H4.2C3.62345 2 3.25118 2.00078 2.96784 2.02393C2.69618 2.04613 2.59546 2.0838 2.54601 2.109C2.43882 2.16361 2.34304 2.23677 2.26273 2.3244L9.3926 7.77665C9.75116 8.05084 10.2489 8.05084 10.6075 7.77665L17.7373 2.32445Z" fill="#DD0A34"/>
<path fill-rule="evenodd" clip-rule="evenodd" d="M28.8385 11H17.1615C16.6343 11 16.1795 11 15.805 11.0306C15.4096 11.0629 15.0164 11.1342 14.638 11.327C14.0735 11.6146 13.6146 12.0735 13.327 12.638C13.1342 13.0164 13.0629 13.4096 13.0306 13.805C13 14.1795 13 14.6343 13 15.1614V22.8385C13 23.3657 13 23.8205 13.0306 24.195C13.0629 24.5904 13.1342 24.9836 13.327 25.362C13.6146 25.9265 14.0735 26.3854 14.638 26.673C15.0164 26.8658 15.4096 26.9371 15.805 26.9694C16.1795 27 16.6342 27 17.1613 27H23C23.5523 27 24 26.5523 24 26C24 25.4477 23.5523 25 23 25H17.2C16.6234 25 16.2512 24.9992 15.9678 24.9761C15.6962 24.9539 15.5955 24.9162 15.546 24.891C15.3578 24.7951 15.2049 24.6422 15.109 24.454C15.0838 24.4046 15.0461 24.3038 15.0239 24.0322C15.0008 23.7488 15 23.3766 15 22.8V15.6412L21.1777 20.3654C22.2534 21.1879 23.7467 21.1879 24.8224 20.3654L31 15.6413V18C31 18.5523 31.4477 19 32 19C32.5523 19 33 18.5523 33 18V15.1614C33 14.6343 33 14.1795 32.9694 13.805C32.9371 13.4096 32.8658 13.0164 32.673 12.638C32.3854 12.0735 31.9265 11.6146 31.362 11.327C30.9836 11.1342 30.5904 11.0629 30.195 11.0306C29.8205 11 29.3657 11 28.8385 11ZM30.7373 13.3244C30.657 13.2368 30.5612 13.1636 30.454 13.109C30.4045 13.0838 30.3038 13.0461 30.0322 13.0239C29.7488 13.0008 29.3766 13 28.8 13H17.2C16.6234 13 16.2512 13.0008 15.9678 13.0239C15.6962 13.0461 15.5955 13.0838 15.546 13.109C15.4388 13.1636 15.343 13.2368 15.2627 13.3244L22.3926 18.7767C22.7512 19.0508 23.2489 19.0508 23.6075 18.7767L30.7373 13.3244Z" fill="#DD0A34"/>
<path d="M27 23C27 22.4477 27.4477 22 28 22H32C32.5523 22 33 22.4477 33 23C33 23.5523 32.5523 24 32 24H28C27.4477 24 27 23.5523 27 23Z" fill="#DD0A34"/>
<path d="M28 25C27.4477 25 27 25.4477 27 26C27 26.5523 27.4477 27 28 27H31C31.5523 27 32 26.5523 32 26C32 25.4477 31.5523 25 31 25H28Z" fill="#DD0A34"/>
</svg>
