<svg width="26" height="26" viewBox="0 0 26 26" fill="none" xmlns="http://www.w3.org/2000/svg">
<path fill-rule="evenodd" clip-rule="evenodd" d="M19 19H7C6.44771 19 6 19.4477 6 20V23C6 23.5523 6.44772 24 7 24H19C19.5523 24 20 23.5523 20 23V20C20 19.4477 19.5523 19 19 19ZM7 17C5.34315 17 4 18.3431 4 20V23C4 24.6569 5.34315 26 7 26H19C20.6569 26 22 24.6569 22 23V20C22 18.3431 20.6569 17 19 17H7Z" fill="#DD0A34"/>
<path fill-rule="evenodd" clip-rule="evenodd" d="M20 2H6C5.44771 2 5 2.44772 5 3V6C5 6.55229 5.44772 7 6 7H20C20.5523 7 21 6.55228 21 6V3C21 2.44771 20.5523 2 20 2ZM6 0C4.34315 0 3 1.34315 3 3V6C3 7.65685 4.34315 9 6 9H20C21.6569 9 23 7.65685 23 6V3C23 1.34315 21.6569 0 20 0H6Z" fill="#DD0A34"/>
<path fill-rule="evenodd" clip-rule="evenodd" d="M5 9C3.34315 9 2 10.3431 2 12V18.8769C2 20.3207 3.35681 21.38 4.75746 21.0299L5.24254 22.9701C2.57959 23.6359 0 21.6218 0 18.8769V12C0 9.23858 2.23858 7 5 7H21C23.7614 7 26 9.23858 26 12V18.8769C26 21.6218 23.4204 23.6359 20.7575 22.9701L21.2425 21.0299C22.6432 21.38 24 20.3207 24 18.8769V12C24 10.3431 22.6569 9 21 9H5Z" fill="#DD0A34"/>
</svg>
